<svg width="4" height="8" viewBox="0 0 4 8" fill="none" xmlns="http://www.w3.org/2000/svg">
<path d="M0.15296 7.82391C0.0550197 7.71112 0 7.55817 0 7.39869C0 7.23921 0.0550197 7.08626 0.15296 6.97348L2.73897 3.99637L0.15296 1.01926C0.0577953 0.905828 0.0051374 0.753904 0.00632771 0.596209C0.00751802 0.438515 0.0624612 0.287667 0.159323 0.176156C0.256186 0.0646447 0.387217 0.00139301 0.524195 2.26914e-05C0.661174 -0.00134763 0.79314 0.0592737 0.891671 0.16883L3.84704 3.57115C3.94498 3.68394 4 3.83689 4 3.99637C4 4.15585 3.94498 4.3088 3.84704 4.42158L0.891671 7.82391C0.793701 7.93666 0.660844 8 0.522315 8C0.383786 8 0.250929 7.93666 0.15296 7.82391Z" fill="#F8FAF6"/>
</svg>
