<svg width="8" height="8" viewBox="0 0 8 8" fill="none" xmlns="http://www.w3.org/2000/svg">
<path d="M0.15296 7.82391C0.0550197 7.71112 0 7.55817 0 7.39869C0 7.23921 0.0550197 7.08626 0.15296 6.97348L2.73897 3.99637L0.15296 1.01926C0.0577953 0.905828 0.0051374 0.753904 0.00632771 0.596209C0.00751802 0.438515 0.0624612 0.287667 0.159323 0.176156C0.256186 0.0646447 0.387217 0.00139301 0.524195 2.26914e-05C0.661174 -0.00134763 0.79314 0.0592737 0.891671 0.16883L3.84704 3.57115C3.94498 3.68394 4 3.83689 4 3.99637C4 4.15585 3.94498 4.3088 3.84704 4.42158L0.891671 7.82391C0.793701 7.93666 0.660844 8 0.522315 8C0.383786 8 0.250929 7.93666 0.15296 7.82391Z" fill="#F8FAF6"/>
<path d="M4.15296 7.82391C4.05502 7.71112 4 7.55817 4 7.39869C4 7.23921 4.05502 7.08626 4.15296 6.97348L6.73897 3.99637L4.15296 1.01926C4.0578 0.905828 4.00514 0.753904 4.00633 0.596209C4.00752 0.438515 4.06246 0.287667 4.15932 0.176156C4.25619 0.0646447 4.38722 0.00139301 4.5242 2.26914e-05C4.66117 -0.00134763 4.79314 0.0592737 4.89167 0.16883L7.84704 3.57115C7.94498 3.68394 8 3.83689 8 3.99637C8 4.15585 7.94498 4.3088 7.84704 4.42158L4.89167 7.82391C4.7937 7.93666 4.66084 8 4.52232 8C4.38379 8 4.25093 7.93666 4.15296 7.82391Z" fill="#F8FAF6"/>
</svg>
