<svg width="16" height="16" viewBox="0 0 16 16" fill="none" xmlns="http://www.w3.org/2000/svg">
<g clip-path="url(#clip0_1_143)">
<path d="M8.00006 0C10.2091 0 12.2091 0.895563 13.6568 2.34316C15.1045 3.79097 16 5.79091 16 7.99994C16 10.209 15.1045 12.2091 13.6568 13.6567C12.2092 15.1044 10.2091 16 8.00006 16C5.791 16 3.79087 15.1045 2.34328 13.6567C0.895469 12.2091 0 10.209 0 7.99994C0 5.79091 0.895563 3.79087 2.34328 2.34316C3.79087 0.895563 5.791 0 8.00006 0ZM8.65628 9.20484V8.95172H8.17809V7.51716H10.4378V10.6488C9.69394 10.9301 8.92509 11.0708 8.13128 11.0708C7.06234 11.0708 6.32794 10.8113 5.92784 10.2925C5.72156 10.0237 5.57788 9.70809 5.49659 9.34556C5.41531 8.983 5.37466 8.53444 5.37466 8.00006C5.37466 7.46566 5.41691 7.01872 5.50128 6.65925C5.58566 6.29987 5.73722 5.98575 5.956 5.71694C6.36859 5.19194 7.1655 4.92931 8.34694 4.92931C8.59069 4.92931 8.90791 4.95438 9.29862 5.00441C9.68925 5.05434 9.97522 5.11066 10.1566 5.17316L9.87528 6.60772C9.36894 6.52016 8.911 6.47641 8.50163 6.47641C8.09222 6.47641 7.80466 6.50766 7.639 6.57019C7.47334 6.63269 7.39056 6.75769 7.39056 6.94522V9.59866H8.00934C8.23441 9.59866 8.39847 9.57519 8.50163 9.52837C8.60475 9.48144 8.65628 9.37362 8.65628 9.20484ZM12.8071 3.19294C11.5769 1.96288 9.87731 1.20187 8.00006 1.20187C6.12278 1.20187 4.42306 1.96288 3.19303 3.19294C1.96288 4.42306 1.20191 6.12269 1.20191 7.99994C1.20191 9.87722 1.96288 11.5769 3.19303 12.807C4.42306 14.0371 6.12278 14.7981 8.00006 14.7981C9.87731 14.7981 11.5769 14.0371 12.8071 12.807C14.0372 11.5769 14.7981 9.87722 14.7981 7.99994C14.7981 6.12269 14.0372 4.42306 12.8071 3.19294Z" fill="#F8FAF6"/>
</g>
<defs>
<clipPath id="clip0_1_143">
<rect width="16" height="16" fill="white"/>
</clipPath>
</defs>
</svg>
