<svg width="16" height="16" viewBox="0 0 16 16" fill="none" xmlns="http://www.w3.org/2000/svg">
<path d="M5.99582 0.25324C7.155 -0.0460378 8.38124 -0.0801792 9.55572 0.151493C10.9317 0.42083 12.2307 1.06504 13.2815 1.99282C12.7617 2.51225 12.2423 3.03209 11.7226 3.55139C11.3215 3.21594 10.8757 2.93346 10.3994 2.7171C9.24696 2.18926 7.91925 2.0611 6.68556 2.34818C5.70373 2.57403 4.78557 3.06515 4.04937 3.75217C3.33471 4.41562 2.79021 5.26157 2.487 6.18866C2.13746 7.24975 2.10535 8.41232 2.3923 9.49169C2.634 10.4065 3.10683 11.2581 3.75185 11.9497C4.40771 12.6564 5.24201 13.1968 6.15691 13.5019C7.29807 13.8857 8.5594 13.8998 9.70963 13.5445C10.4442 13.3188 11.1315 12.9428 11.7208 12.4499C12.2406 12.9695 12.7601 13.4891 13.2797 14.0086C12.6912 14.5266 12.0264 14.9577 11.3129 15.2828C10.4989 15.6545 9.62143 15.8861 8.73024 15.9665C7.59897 16.0694 6.44562 15.9319 5.37275 15.5577C4.46651 15.2433 3.61881 14.7623 2.88233 14.1479C2.25032 13.6214 1.69959 12.9975 1.25643 12.3046C0.704206 11.4426 0.320252 10.4734 0.134372 9.46663C-0.0859199 8.27751 -0.035386 7.0384 0.286246 5.87232C0.532822 4.97503 0.939536 4.12217 1.4797 3.36456C2.00117 2.63215 2.64646 1.98821 3.38023 1.46864C4.16859 0.909104 5.05951 0.494532 5.99582 0.25324Z" fill="#FC3E04"/>
<path d="M12.4504 4.27747C12.9698 3.75777 13.4898 3.23847 14.0089 2.71863C14.6111 3.40172 15.0952 4.18873 15.4327 5.03454C15.7954 5.94118 15.9872 6.91529 15.9993 7.89157C16.0131 8.88247 15.8423 9.87596 15.4937 10.8037C15.1542 11.7105 14.6472 12.5537 14.0074 13.2803L12.4487 11.7216C13.1545 10.8807 13.6154 9.8364 13.7534 8.74672C13.8434 8.04669 13.8067 7.33013 13.6419 6.64365C13.4356 5.77657 13.0224 4.9607 12.4504 4.27747Z" fill="#FC3E04"/>
<path d="M6.09048 3.22485C7.28013 2.74674 8.64985 2.73644 9.8452 3.2006C9.86633 3.20886 9.8876 3.21686 9.90928 3.22485C9.91185 3.93734 9.90901 4.64997 9.91063 5.36247C9.27455 6.00045 8.63698 6.63694 7.99994 7.27411C7.44149 6.71592 6.88331 6.15747 6.32499 5.59915C6.2475 5.51908 6.16445 5.44362 6.09048 5.36098C6.08912 4.64903 6.08885 3.93694 6.09048 3.22485Z" fill="#FC3E04"/>
<path d="M3.222 6.09288C3.92976 6.08881 4.63778 6.0922 5.34567 6.09125C5.37128 6.08827 5.38401 6.11537 5.40149 6.12959C6.02497 6.75348 6.64927 7.37656 7.27289 8.00058C6.63545 8.63789 5.99815 9.27533 5.3603 9.91222C4.64767 9.91005 3.93477 9.91507 3.22228 9.90965C2.99277 9.32423 2.86501 8.69831 2.85851 8.06914C2.84808 7.39485 2.97421 6.71988 3.222 6.09288Z" fill="#FC3E04"/>
<path d="M10.4556 6.27155C10.5178 6.21262 10.5743 6.14651 10.6397 6.09191C11.3518 6.09069 12.0641 6.09014 12.7763 6.09218C13.0066 6.67312 13.1319 7.29566 13.1403 7.92077C13.1508 8.56999 13.0375 9.22111 12.8065 9.82807C12.7957 9.85489 12.7854 9.88199 12.7767 9.90976C12.0642 9.91491 11.3514 9.9099 10.6389 9.9122C10.0008 9.27558 9.36365 8.63787 8.72607 8.00043C9.30241 7.42396 9.87915 6.84789 10.4556 6.27155Z" fill="#FC3E04"/>
<path d="M7.1707 9.55615C7.44721 9.2795 7.7236 9.00271 8.00011 8.7262C8.63565 9.36255 9.27201 9.99809 9.90674 10.6351C9.91554 10.7267 9.90769 10.8209 9.9104 10.9134C9.90945 11.5343 9.91229 12.1552 9.90904 12.776C9.3243 13.0078 8.69757 13.1338 8.0684 13.1406C7.39384 13.1511 6.71887 13.0245 6.09173 12.7767C6.08753 12.0647 6.0901 11.3526 6.09051 10.6407C6.44669 10.276 6.81127 9.91816 7.1707 9.55615Z" fill="#FC3E04"/>
</svg>
