<svg width="16" height="16" viewBox="0 0 16 16" fill="none" xmlns="http://www.w3.org/2000/svg">
<g clip-path="url(#clip0_1_149)">
<path d="M14.8474 7.80303C14.8474 9.59751 14.1226 11.3185 12.8325 12.5876C11.5425 13.8567 9.79266 14.5699 7.96793 14.5704C6.14321 14.5709 4.39298 13.8587 3.10214 12.5904C1.8113 11.3221 1.08554 9.60147 1.08447 7.80699C1.08341 6.01251 1.80712 4.29108 3.09645 3.02127C4.38578 1.75145 6.13516 1.03722 7.95989 1.03565C9.78461 1.03407 11.5353 1.74528 12.8269 3.01287C14.1185 4.28046 14.8452 6.00064 14.8474 7.79512" fill="#232126"/>
<path d="M8.086 0.310428C5.99932 0.312251 3.99882 1.12903 2.52441 2.58114C1.05 4.03325 0.222409 6.0018 0.223634 8.05389C0.224843 10.106 1.05479 12.0736 2.53096 13.5241C4.00714 14.9745 6.00866 15.7889 8.09536 15.7883C10.1821 15.7877 12.1831 14.9721 13.6584 13.5208C15.1337 12.0695 15.9624 10.1014 15.9624 8.04929V8.04026C15.9599 5.98815 15.1288 4.021 13.6518 2.57144C12.1747 1.12187 10.1727 0.308588 8.086 0.310428ZM8.05004 1.96439C9.68448 1.96294 11.2526 2.59995 12.4095 3.73535C13.5664 4.87074 14.2174 6.41155 14.2193 8.0189V8.02589C14.2193 9.63321 13.5702 11.1747 12.4146 12.3114C11.2591 13.4481 9.69175 14.087 8.05734 14.0874C6.42293 14.0879 4.85525 13.45 3.69903 12.3139C2.54282 11.1779 1.89276 9.63672 1.8918 8.0294C1.89087 6.42211 2.5391 4.88025 3.69393 3.7429C4.84877 2.60554 6.41566 1.96582 8.05004 1.96439Z" fill="#FFCE35"/>
<path d="M6.994 13.0547L8.33575 11.7352L5.75198 9.19425C5.64319 9.08727 5.52533 8.95353 5.46187 8.80196C5.31682 8.49883 5.25336 8.02631 5.60693 7.6786C6.04209 7.25065 6.6223 7.42896 7.18438 7.98173L9.66843 10.4246L11.0102 9.1051L8.41734 6.55523C8.30855 6.44825 8.18163 6.28777 8.11817 6.15404C7.94592 5.80633 7.95498 5.36946 8.27229 5.05741C8.71652 4.62055 9.29673 4.78103 9.9404 5.41404L12.3519 7.78559L13.6937 6.46608L11.0827 3.89838C9.75909 2.59671 8.51706 2.64129 7.66487 3.47935C7.3385 3.80031 7.13906 4.13911 7.03933 4.52248C6.95774 4.85235 6.93054 5.2179 7.00306 5.61018L6.98494 5.62801C6.33219 5.36054 5.58879 5.52102 5.01764 6.08271C4.25611 6.83162 4.28331 7.62511 4.37397 8.08872L4.34677 8.11546L3.68496 7.58944L2.52453 8.73064C2.93249 9.09618 3.42206 9.54196 3.97507 10.0858L6.994 13.0547Z" fill="#F8FAF6"/>
</g>
<defs>
<clipPath id="clip0_1_149">
<rect width="16" height="16" fill="white"/>
</clipPath>
</defs>
</svg>
