<svg width="15" height="16" viewBox="0 0 15 16" fill="none" xmlns="http://www.w3.org/2000/svg">
<path d="M14.2499 7.24998H8.25002V1.24995C8.25002 0.836043 7.91398 0.5 7.49993 0.5C7.08602 0.5 6.74998 0.836043 6.74998 1.24995V7.24998H0.749952C0.336043 7.24998 0 7.58602 0 7.99993C0 8.41398 0.336043 8.75002 0.749952 8.75002H6.74998V14.7499C6.74998 15.164 7.08602 15.5 7.49993 15.5C7.91398 15.5 8.25002 15.164 8.25002 14.7499V8.75002H14.2499C14.664 8.75002 15 8.41398 15 7.99993C15 7.58602 14.664 7.24998 14.2499 7.24998Z" fill="#F8FAF6"/>
</svg>
